<svg width="247" height="25" viewBox="0 0 247 25" fill="none" xmlns="http://www.w3.org/2000/svg">
<path d="M10.92 6.36V24H5.04V6.36H0.18V1.38H15.78V6.36H10.92ZM29.989 20.07H21.889L20.329 24H14.089L22.789 1.38H29.209L37.729 24H31.459L29.989 20.07ZM28.399 15.57L25.999 8.37H25.939L23.509 15.57H28.399ZM44.6365 1.38H50.5165V16.65C50.5165 19.05 49.8865 20.98 48.6265 22.44C47.3865 23.88 45.5165 24.6 43.0165 24.6C41.7565 24.6 40.6365 24.31 39.6565 23.73C38.6965 23.15 37.8865 22.34 37.2265 21.3L40.5865 17.7C40.6265 17.76 40.6565 17.82 40.6765 17.88C40.7165 17.92 40.7565 17.97 40.7965 18.03C40.9965 18.27 41.2065 18.51 41.4265 18.75C41.6465 18.97 41.8665 19.16 42.0865 19.32C42.2265 19.42 42.3665 19.5 42.5065 19.56C42.6665 19.62 42.8165 19.65 42.9565 19.65C43.5765 19.65 43.9965 19.43 44.2165 18.99C44.4365 18.53 44.5665 18.04 44.6065 17.52C44.6265 17.32 44.6365 17.13 44.6365 16.95C44.6365 16.77 44.6365 16.6 44.6365 16.44C44.6365 16.42 44.6365 16.4 44.6365 16.38C44.6365 16.36 44.6365 16.34 44.6365 16.32V1.38ZM52.8942 24L56.7342 1.38H62.5242L67.1142 13.47L71.9742 1.38H77.8242L81.2442 24H75.3642L73.7142 10.98H73.6542L68.2242 24H65.8842L60.6942 10.98H60.6342L58.7442 24H52.8942ZM97.6062 20.07H89.5062L87.9462 24H81.7062L90.4062 1.38H96.8262L105.346 24H99.0762L97.6062 20.07ZM96.0162 15.57L93.6162 8.37H93.5562L91.1262 15.57H96.0162ZM113.064 1.38V19.02H120.114V24H107.184V1.38H113.064ZM138.2 10.11H146.69V1.38H152.57V24H146.69V14.73H138.2V24H132.32V1.38H138.2V10.11ZM167.772 0.629999C171.032 0.649998 173.932 1.75 176.472 3.93C179.012 6.09 180.282 8.88 180.282 12.3C180.282 15.96 179.102 18.95 176.742 21.27C174.402 23.59 171.412 24.75 167.772 24.75C164.152 24.75 161.162 23.59 158.802 21.27C156.442 18.95 155.262 15.96 155.262 12.3C155.262 8.88 156.532 6.09 159.072 3.93C161.612 1.75 164.512 0.659998 167.772 0.659998V0.629999ZM167.772 6.33C166.012 6.35 164.502 6.97 163.242 8.19C162.002 9.39 161.382 10.77 161.382 12.33C161.382 14.27 162.002 15.88 163.242 17.16C164.502 18.44 166.012 19.08 167.772 19.08C169.532 19.08 171.032 18.44 172.272 17.16C173.532 15.88 174.162 14.27 174.162 12.33C174.162 10.77 173.532 9.39 172.272 8.19C171.032 6.97 169.532 6.36 167.772 6.36V6.33ZM192.004 6.36V24H186.124V6.36H181.264V1.38H196.864V6.36H192.004ZM211.87 6.36H204.88V10.14H211.51V15.12H204.88V19.02H211.87V24H199V1.38H211.87V6.36ZM221.374 1.38V19.02H228.424V24H215.494V1.38H221.374ZM245.108 2.64L242.768 7.2C242.228 6.76 241.618 6.41 240.938 6.15C240.278 5.87 239.588 5.73 238.868 5.73C238.768 5.73 238.658 5.74 238.538 5.76C238.418 5.76 238.298 5.78 238.178 5.82C237.718 5.92 237.298 6.12 236.918 6.42C236.538 6.72 236.348 7.12 236.348 7.62C236.348 8.1 236.528 8.49 236.888 8.79C237.248 9.07 237.638 9.3 238.058 9.48C238.218 9.54 238.368 9.6 238.508 9.66C238.668 9.7 238.818 9.74 238.958 9.78L240.458 10.2C242.038 10.68 243.358 11.38 244.418 12.3C245.498 13.2 246.038 14.57 246.038 16.41C246.038 16.49 246.038 16.57 246.038 16.65C246.038 16.73 246.038 16.81 246.038 16.89C245.998 17.93 245.808 18.95 245.468 19.95C245.128 20.93 244.538 21.78 243.698 22.5C242.938 23.16 242.078 23.65 241.118 23.97C240.158 24.29 239.178 24.49 238.178 24.57C238.018 24.57 237.858 24.57 237.698 24.57C237.558 24.59 237.418 24.6 237.278 24.6C235.858 24.6 234.468 24.38 233.108 23.94C231.748 23.48 230.488 22.85 229.328 22.05L231.848 17.28C232.588 17.94 233.388 18.5 234.248 18.96C235.128 19.42 236.068 19.65 237.068 19.65C237.108 19.65 237.148 19.65 237.188 19.65C237.228 19.65 237.268 19.65 237.308 19.65C237.968 19.61 238.568 19.41 239.108 19.05C239.648 18.67 239.918 18.11 239.918 17.37C239.918 16.81 239.688 16.36 239.228 16.02C238.788 15.68 238.288 15.41 237.728 15.21C237.488 15.13 237.248 15.06 237.008 15C236.768 14.92 236.548 14.85 236.348 14.79C236.308 14.77 236.258 14.76 236.198 14.76C236.158 14.74 236.118 14.72 236.078 14.7C234.298 14.2 232.878 13.56 231.818 12.78C230.758 12 230.228 10.54 230.228 8.4C230.228 6.1 230.958 4.26 232.418 2.88C233.898 1.5 235.768 0.809998 238.028 0.809998C238.488 0.809998 238.958 0.839998 239.438 0.899999C239.918 0.939999 240.398 1.02 240.878 1.14C241.638 1.3 242.378 1.51 243.098 1.77C243.838 2.03 244.508 2.33 245.108 2.67V2.64Z" fill="white"/>
</svg>
